<?xml version="1.0" standalone="no"?>
<!DOCTYPE svg PUBLIC "-//W3C//DTD SVG 20010904//EN"
 "http://www.w3.org/TR/2001/REC-SVG-20010904/DTD/svg10.dtd">
<svg version="1.0" xmlns="http://www.w3.org/2000/svg"
 width="913.000000pt" height="913.000000pt" viewBox="0 0 913.000000 913.000000"
 preserveAspectRatio="xMidYMid meet">
<metadata>
Created by potrace 1.11, written by Peter Selinger 2001-2013
</metadata>
<g transform="translate(0.000000,913.000000) scale(0.100000,-0.100000)"
fill="#000000" stroke="none">
<path d="M4525 6406 c-7 -12 -16 -41 -20 -66 -29 -219 -257 -729 -473 -1060
-64 -98 -107 -146 -291 -331 -243 -242 -461 -426 -572 -481 -41 -20 -133 -78
-206 -130 -73 -51 -139 -97 -147 -103 -13 -8 -2 -30 69 -139 192 -294 275
-514 309 -820 l4 -39 -466 7 c-257 4 -525 8 -597 10 l-130 2 -1 70 c-2 82 22
160 82 268 38 66 174 254 238 326 38 43 150 168 206 230 22 24 39 49 37 55 -7
21 -93 59 -210 90 -67 19 -261 81 -432 140 -170 59 -321 110 -335 115 -115 39
-338 132 -525 220 -55 25 -125 57 -155 71 -169 74 -404 200 -476 254 -21 17
-43 33 -49 37 -63 45 -149 139 -203 223 -79 122 -129 185 -146 185 -43 0 -42
-117 2 -385 17 -99 34 -202 38 -230 4 -27 8 -52 9 -55 1 -3 7 -39 14 -80 7
-41 15 -84 18 -95 14 -71 25 -123 29 -140 2 -11 6 -29 8 -40 13 -65 80 -363
96 -431 36 -148 128 -389 224 -585 20 -41 91 -146 157 -234 152 -201 199 -272
199 -302 l0 -23 3709 0 3709 0 23 38 c12 20 80 111 149 202 150 195 195 261
243 355 57 112 86 182 128 310 34 102 142 510 155 585 3 14 7 32 10 40 4 12
19 77 70 315 2 11 9 47 14 80 6 33 12 71 14 85 39 215 49 318 50 470 1 99 -1
115 -16 118 -22 4 -58 -37 -120 -138 -33 -53 -88 -121 -148 -181 -178 -179
-288 -243 -790 -464 -91 -40 -230 -98 -310 -128 -80 -30 -230 -87 -335 -127
-248 -95 -395 -145 -514 -175 -118 -30 -247 -72 -283 -93 -46 -27 -40 -43 49
-138 275 -290 455 -572 479 -747 13 -97 20 -87 -60 -88 -39 0 -138 -2 -221 -4
-757 -16 -905 -16 -906 -3 -3 27 1 105 6 148 11 82 66 273 86 294 5 6 9 16 9
24 0 30 140 291 236 438 18 28 34 56 36 62 5 19 -181 159 -284 213 -146 77
-228 134 -393 275 -141 120 -325 296 -389 373 -44 52 -177 254 -251 381 -201
342 -337 660 -374 869 -17 94 -18 96 -45 97 -18 1 -32 -6 -41 -20z"/>
<path d="M562 2836 c-34 -27 -62 -92 -62 -149 0 -52 29 -127 63 -164 l20 -23
3973 0 3973 0 22 23 c48 50 59 79 59 160 0 83 -21 133 -67 158 -16 9 -989 12
-3989 13 -3916 1 -3967 1 -3992 -18z"/>
</g>
</svg>
