<?xml version="1.0" standalone="no"?>
<!DOCTYPE svg PUBLIC "-//W3C//DTD SVG 20010904//EN"
 "http://www.w3.org/TR/2001/REC-SVG-20010904/DTD/svg10.dtd">
<svg version="1.0" xmlns="http://www.w3.org/2000/svg"
 width="1511.000000pt" height="1511.000000pt" viewBox="0 0 1511.000000 1511.000000"
 preserveAspectRatio="xMidYMid meet">
<metadata>
Created by potrace 1.11, written by Peter Selinger 2001-2013
</metadata>
<g transform="translate(0.000000,1511.000000) scale(0.100000,-0.100000)"
fill="#000000" stroke="none">
<path d="M7516 15088 c-8 -13 -18 -45 -21 -73 -4 -27 -18 -84 -31 -125 -13
-41 -32 -97 -41 -125 -8 -27 -21 -63 -28 -80 -120 -290 -237 -517 -383 -740
-131 -200 -677 -711 -849 -795 -38 -18 -136 -80 -220 -138 l-152 -106 15 -25
c8 -14 23 -37 33 -51 81 -109 208 -341 251 -458 42 -115 62 -194 84 -332 20
-130 71 -115 -389 -113 -220 1 -488 3 -595 5 l-195 4 -3 53 c-7 124 47 247
195 448 60 83 194 244 264 318 89 95 109 120 106 130 -7 21 -88 56 -208 89
-116 33 -663 216 -846 285 -102 38 -226 89 -318 131 -38 18 -115 52 -170 77
-131 60 -406 194 -473 231 -149 83 -280 202 -367 334 -83 126 -132 188 -149
188 -43 0 -42 -121 4 -395 17 -104 33 -202 36 -217 4 -29 9 -59 19 -118 32
-189 151 -722 190 -847 36 -114 112 -302 181 -448 24 -50 96 -158 195 -290
111 -149 159 -221 164 -248 l7 -37 3708 0 3708 0 32 50 c18 28 98 135 177 238
123 160 155 209 218 337 92 185 136 318 219 656 36 145 70 284 76 309 7 25 13
54 16 65 2 11 6 31 9 45 3 14 7 34 9 45 2 11 14 67 25 125 26 127 28 136 41
230 28 192 37 285 36 393 -1 95 -2 102 -21 105 -16 2 -33 -14 -68 -63 -26 -36
-47 -67 -47 -70 0 -28 -168 -216 -265 -295 -93 -76 -261 -171 -465 -263 -267
-121 -407 -179 -710 -292 -387 -146 -521 -193 -680 -236 -80 -22 -171 -49
-202 -61 -56 -20 -102 -52 -96 -68 2 -4 46 -54 99 -111 125 -135 168 -185 235
-275 140 -190 225 -369 237 -501 l4 -43 -76 -1 c-42 0 -170 -3 -286 -5 -115
-2 -352 -5 -525 -7 l-315 -2 3 70 c8 194 87 413 250 700 25 44 49 82 52 85 3
3 17 23 30 45 13 22 30 49 37 61 12 19 7 25 -72 87 -96 76 -127 96 -240 157
-87 46 -170 98 -205 127 -144 117 -268 224 -368 318 -56 52 -165 171 -212 231
-41 53 -147 217 -200 309 -10 17 -40 69 -68 116 -27 48 -81 151 -120 230 -116
237 -172 391 -201 548 -16 90 -18 95 -44 98 -19 3 -30 -3 -41 -19z"/>
<path d="M3543 11505 c-72 -71 -67 -218 10 -302 l20 -23 3972 0 c3897 0 3972
0 3992 19 46 44 62 85 64 164 2 79 -9 105 -59 150 -20 18 -145 19 -3994 21
l-3973 2 -32 -31z"/>
<path d="M3330 11058 c-50 -18 -191 -210 -260 -353 -71 -147 -80 -186 -76
-329 4 -128 6 -142 29 -197 19 -45 44 -66 65 -53 8 6 36 44 62 85 77 123 108
149 187 151 44 2 123 -19 123 -32 -1 -41 -61 -197 -162 -420 -103 -227 -153
-326 -260 -510 -53 -91 -108 -187 -123 -215 -16 -27 -45 -76 -66 -107 -21 -31
-50 -89 -63 -130 -13 -40 -37 -104 -53 -143 -17 -38 -33 -83 -38 -100 -4 -16
-9 -34 -11 -40 -26 -94 -72 -240 -113 -360 -54 -155 -78 -248 -87 -325 -13
-115 -12 -132 7 -151 28 -28 48 -23 89 21 38 41 56 50 57 28 1 -7 3 -29 6 -48
9 -54 16 -134 22 -255 12 -228 20 -308 36 -380 4 -22 8 -224 8 -450 -1 -225 1
-426 4 -445 3 -19 8 -60 12 -90 7 -58 8 -65 25 -170 37 -235 101 -513 146
-636 50 -140 104 -195 137 -142 13 20 13 36 -3 133 -20 122 -21 125 -50 315
-11 74 -23 149 -27 165 -9 49 -5 257 7 308 15 68 94 282 129 353 l30 59 1 -70
c1 -38 3 -88 5 -110 4 -38 17 -145 20 -155 0 -3 4 -27 9 -55 13 -87 65 -286
107 -409 54 -158 103 -271 312 -721 59 -127 182 -367 228 -447 57 -97 80 -122
107 -114 24 8 22 -10 24 225 0 101 12 166 27 156 4 -2 13 -30 20 -62 20 -88
75 -275 122 -408 64 -183 139 -355 274 -630 178 -364 196 -415 235 -690 24
-162 27 -196 34 -352 5 -97 18 -143 41 -143 28 0 47 28 51 75 17 172 111 504
165 586 16 24 16 24 24 -31 16 -119 101 -300 204 -435 74 -98 103 -129 360
-385 343 -342 580 -542 726 -611 87 -42 88 -42 80 44 -3 39 -8 79 -10 87 -2 8
-6 40 -10 70 -3 30 -8 67 -10 83 -9 46 12 30 53 -40 71 -122 84 -146 227 -418
38 -71 88 -165 112 -209 24 -43 43 -80 43 -82 0 -13 125 -225 179 -304 136
-199 356 -483 560 -724 l92 -109 -6 69 c-4 37 -9 77 -11 87 -9 49 -15 181 -10
211 6 33 60 102 85 108 11 2 13 -35 12 -209 -1 -128 2 -213 8 -213 10 0 110
111 193 215 175 219 469 641 540 775 85 162 159 301 208 395 94 178 154 291
170 320 52 92 92 155 100 160 16 10 11 -68 -10 -160 -23 -99 -28 -171 -12
-187 16 -16 51 -4 118 42 56 37 204 155 314 250 25 21 55 48 68 58 267 229
455 418 662 668 79 95 147 229 181 354 40 151 60 179 73 105 3 -16 21 -77 40
-135 19 -58 41 -136 50 -175 9 -38 25 -109 36 -158 28 -122 58 -177 89 -158
21 13 38 109 40 222 2 57 4 118 6 134 2 17 6 59 10 95 3 36 24 142 46 235 39
167 42 175 174 445 133 275 231 494 286 645 16 44 32 87 36 95 3 8 7 17 8 20
0 3 13 41 27 85 32 97 55 187 64 252 3 26 8 50 10 52 27 29 46 -214 26 -322
-9 -45 -8 -49 15 -65 25 -15 26 -15 54 15 73 82 241 410 431 843 33 74 68 153
78 175 10 22 37 90 60 150 118 310 165 536 169 813 1 46 5 81 10 78 25 -16
113 -250 159 -423 24 -92 22 -234 -8 -398 -12 -66 -24 -133 -26 -150 -3 -16
-7 -41 -10 -53 -3 -13 -7 -40 -10 -60 -23 -174 -21 -238 9 -256 16 -9 23 -5
47 22 35 43 106 229 126 334 5 31 10 54 23 111 6 26 14 64 17 85 3 20 9 53 14
72 5 19 11 55 14 80 3 25 8 56 11 70 6 26 10 53 20 135 4 28 8 61 10 75 19
114 24 391 16 792 -2 64 0 121 2 125 9 15 19 96 22 193 4 105 16 276 20 302 2
9 7 48 10 85 4 37 9 75 10 83 1 8 6 34 10 58 7 43 7 43 23 20 28 -42 76 -88
91 -88 9 0 24 7 34 14 15 12 16 20 8 57 -5 24 -12 71 -16 104 -3 32 -8 62 -10
65 -1 3 -6 32 -9 65 -9 87 -18 118 -69 240 -25 61 -55 146 -67 190 -75 269
-152 459 -248 611 -153 244 -379 685 -507 989 -22 52 -46 127 -49 157 -9 73
147 85 221 16 14 -12 48 -57 75 -98 75 -112 93 -121 126 -67 26 42 44 141 44
242 0 63 -7 100 -32 178 -37 112 -126 276 -206 383 -85 113 -78 110 -289 108
-99 -1 -547 -5 -995 -8 -448 -3 -1188 -9 -1645 -13 -1064 -8 -1750 -8 -2825 0
-476 4 -1220 10 -1655 13 -434 3 -863 7 -953 8 -89 1 -171 -2 -182 -6z m4905
-342 c44 -10 114 -26 155 -36 41 -11 91 -22 110 -25 120 -20 151 -28 207 -56
153 -77 205 -197 166 -379 -8 -36 -16 -74 -18 -85 -3 -11 -25 -79 -50 -150
-24 -72 -45 -134 -45 -140 0 -5 8 -20 18 -33 l18 -23 246 85 246 84 23 -24
c33 -35 144 -106 244 -157 50 -25 100 -56 112 -69 24 -25 51 -85 47 -105 -1
-7 -2 -18 -3 -24 -3 -25 -160 -155 -311 -256 -95 -64 -164 -101 -265 -142 -44
-18 -115 -51 -158 -72 -185 -93 -480 -191 -652 -215 -96 -13 -149 -40 -213
-108 -32 -35 -62 -73 -65 -86 -17 -67 245 -241 373 -246 91 -4 271 46 435 121
17 8 82 34 145 59 63 25 182 81 264 125 233 124 369 159 459 116 95 -45 188
-211 247 -440 7 -27 31 -95 52 -150 22 -55 58 -152 79 -215 63 -183 74 -240
74 -395 -1 -129 -15 -167 -88 -231 -100 -88 -369 -228 -567 -296 -150 -51
-138 -55 -209 65 -33 57 -61 108 -61 113 0 5 16 33 34 62 19 29 33 61 31 70
-2 9 -4 20 -4 23 -1 3 -13 11 -27 18 -23 10 -39 5 -142 -43 -203 -95 -242
-137 -242 -256 0 -82 17 -146 63 -237 30 -59 35 -76 27 -100 -24 -74 -21 -93
25 -150 49 -60 142 -198 170 -252 115 -225 91 -400 -80 -574 -81 -82 -175
-140 -296 -182 -94 -32 -164 -40 -314 -39 -210 3 -302 23 -544 119 -128 51
-172 79 -239 155 -92 104 -139 150 -151 150 -6 0 -63 -49 -127 -109 -127 -122
-192 -161 -375 -226 -240 -85 -268 -91 -444 -89 -88 0 -187 7 -220 13 -234 50
-433 189 -512 358 -28 60 -34 85 -36 155 -3 100 5 150 34 215 23 48 119 201
142 225 7 7 34 44 61 81 43 61 47 72 41 106 -13 79 -8 117 28 192 45 95 50
114 50 170 -2 131 -131 257 -313 304 -97 25 -123 -13 -71 -106 l30 -55 -46
-84 c-25 -47 -51 -95 -57 -108 -10 -20 -16 -22 -51 -18 -93 12 -203 56 -424
169 -171 87 -223 120 -280 177 -86 88 -104 188 -66 385 11 54 52 188 90 290
21 55 71 196 111 313 41 117 86 236 101 265 82 159 189 208 350 162 85 -24 94
-28 390 -176 336 -169 493 -223 668 -233 137 -8 350 96 401 196 14 27 13 32
-5 62 -29 46 -115 124 -154 141 -29 11 -83 24 -172 39 -138 24 -391 113 -630
221 -513 232 -746 417 -682 541 21 41 40 56 137 106 47 24 131 74 186 111
l101 66 229 -74 c126 -41 237 -76 248 -77 10 -2 23 5 29 14 14 21 2 69 -65
273 -27 83 -51 158 -53 168 -38 183 96 343 325 387 52 10 131 28 175 40 200
52 261 56 879 54 498 -1 581 -3 651 -18z m-3937 -1174 c18 -26 86 -122 152
-214 66 -92 120 -171 120 -176 0 -5 -25 -67 -56 -138 -30 -71 -59 -138 -64
-149 -5 -11 -28 -69 -51 -130 -23 -60 -88 -227 -145 -370 -121 -307 -139 -364
-415 -1300 -9 -33 -32 -105 -49 -160 -17 -55 -36 -118 -42 -139 -11 -37 -12
-38 -20 -16 -27 72 -44 479 -25 585 3 17 9 54 12 82 11 89 74 274 160 468 44
99 67 206 47 219 -15 9 -88 -32 -157 -89 -62 -51 -256 -185 -269 -185 -15 0
60 166 144 316 33 59 60 109 60 110 0 1 43 74 95 163 129 220 128 217 114 242
-9 18 -17 20 -47 14 -45 -8 -115 -51 -167 -102 -34 -34 -37 -36 -30 -13 33
110 182 402 354 692 97 164 221 339 239 338 4 -1 22 -22 40 -48z m6757 -263
c223 -365 238 -392 341 -622 61 -135 60 -142 -13 -73 -55 53 -135 99 -165 94
-14 -2 -24 -13 -29 -30 -6 -23 8 -52 88 -185 53 -87 109 -183 126 -213 17 -30
47 -84 67 -120 79 -143 141 -272 138 -290 -2 -15 -26 -2 -133 76 -71 52 -155
111 -185 132 -30 20 -61 42 -68 49 -7 7 -16 13 -19 13 -13 0 -43 -34 -43 -47
0 -19 44 -151 69 -205 171 -382 187 -456 167 -783 -4 -55 -9 -131 -12 -170 -4
-38 -7 -91 -8 -117 0 -27 -4 -48 -8 -48 -9 0 -81 222 -188 585 -133 452 -157
529 -197 640 -20 55 -60 170 -88 255 -51 151 -97 272 -136 358 -18 40 -156
373 -208 504 -19 47 -21 60 -11 80 26 51 144 219 226 322 l87 110 21 -27 c12
-14 93 -144 181 -288z m-6222 -2462 c106 -79 264 -188 352 -241 214 -131 316
-195 339 -211 18 -13 19 -32 20 -312 2 -277 3 -304 24 -377 13 -44 29 -91 37
-105 7 -14 39 -77 70 -140 83 -169 137 -244 214 -299 42 -30 46 -37 47 -75 0
-23 4 -96 7 -162 4 -66 10 -176 13 -245 3 -69 7 -150 9 -180 2 -30 7 -122 10
-205 3 -82 8 -174 10 -203 3 -33 1 -51 -5 -47 -6 3 -10 17 -10 30 0 24 -13 79
-74 317 -39 154 -45 168 -82 197 -54 43 -55 39 -49 -171 11 -378 14 -987 5
-993 -5 -3 -11 3 -14 12 -3 10 -32 113 -65 228 -77 269 -73 256 -116 349 -44
96 -62 163 -64 236 -3 109 -14 155 -40 170 -42 22 -77 -35 -143 -235 -22 -66
-42 -122 -44 -124 -3 -4 -31 91 -39 134 -2 17 -7 39 -9 51 -2 12 -7 45 -11 75
-3 30 -8 65 -10 79 -2 14 -7 45 -10 70 -4 25 -8 56 -10 70 -2 14 -6 52 -10 85
-3 33 -8 78 -11 100 -3 22 -6 60 -8 85 -20 235 -24 265 -52 375 -58 233 -186
569 -242 635 -17 20 -24 23 -39 14 -28 -17 -42 -74 -44 -186 -1 -57 -7 -135
-14 -173 -15 -76 -20 -111 -35 -225 -32 -248 -110 -517 -172 -599 -10 -13 -18
-22 -18 -20 -1 2 -3 328 -6 724 -2 396 -5 779 -6 850 -2 113 3 195 16 261 2
11 11 73 21 139 9 66 18 129 20 140 1 11 11 71 20 133 10 61 19 112 21 112 3
0 91 -64 197 -143z m5640 107 c28 -93 44 -186 53 -309 3 -38 7 -83 10 -100 22
-153 23 -1869 1 -1891 -15 -16 -94 182 -131 331 -21 83 -63 318 -71 390 -3 33
-8 76 -11 96 -8 56 -14 124 -19 238 -3 84 -8 106 -22 117 -10 7 -20 13 -23 13
-23 0 -80 -89 -120 -189 -12 -30 -26 -64 -31 -75 -13 -31 -51 -129 -54 -140
-1 -5 -5 -17 -8 -25 -15 -37 -67 -208 -73 -240 -4 -19 -10 -42 -14 -50 -8 -16
-16 -81 -26 -220 -3 -47 -7 -101 -9 -120 -2 -19 -6 -64 -10 -100 -9 -100 -21
-205 -30 -270 -2 -14 -6 -50 -10 -80 -11 -93 -35 -233 -47 -269 -10 -33 -11
-32 -43 80 -58 199 -114 301 -156 278 -21 -11 -29 -41 -35 -132 -8 -130 -13
-147 -108 -347 -14 -30 -50 -154 -80 -275 -50 -204 -71 -275 -79 -275 -4 0 -8
138 -9 365 -1 194 6 410 19 585 17 230 -7 319 -65 245 -25 -31 -59 -145 -111
-365 -23 -96 -46 -182 -51 -190 -9 -15 -8 59 5 259 3 46 8 131 11 190 3 58 6
135 9 171 2 36 7 128 11 205 3 77 8 158 9 180 2 22 3 50 4 62 1 13 33 54 78
100 136 138 226 297 273 482 32 128 39 208 45 500 3 172 6 196 22 211 18 17
187 124 338 215 129 78 250 161 353 244 167 133 177 140 186 137 6 -1 14 -16
19 -32z m-1798 -1588 c49 -32 125 -170 147 -268 15 -65 0 -121 -57 -213 -84
-136 -276 -317 -388 -369 -121 -55 -332 -106 -517 -125 -82 -8 -534 -6 -595 2
-16 3 -61 8 -100 12 -55 5 -192 30 -280 49 -72 16 -164 54 -215 88 -59 39
-237 207 -286 268 -82 104 -106 154 -109 230 -4 84 19 155 74 229 27 36 53 76
60 88 6 12 23 23 38 25 16 2 518 2 1116 1 966 -1 1091 -3 1112 -17z m-755
-1520 c164 -8 215 -14 309 -32 54 -10 63 -17 80 -57 37 -87 97 -347 105 -453
4 -56 3 -61 -14 -57 -10 3 -31 18 -46 34 -52 55 -86 32 -79 -54 6 -88 16 -189
21 -227 7 -48 6 -229 -1 -241 -4 -5 -8 -18 -10 -30 -22 -114 -252 -546 -330
-619 -27 -26 -30 -24 -16 13 5 13 12 41 15 63 4 21 11 55 16 74 10 38 54 303
65 390 4 30 9 62 10 70 23 125 26 535 5 635 -16 79 -61 124 -141 143 -78 17
-640 16 -691 -2 -55 -20 -93 -55 -126 -116 -52 -95 -66 -174 -66 -360 0 -158
9 -266 35 -430 6 -36 12 -76 14 -90 2 -14 9 -50 15 -80 12 -60 18 -88 24 -122
2 -13 12 -57 21 -98 23 -109 23 -110 19 -110 -8 0 -107 154 -176 276 -85 148
-160 312 -182 397 -14 54 -14 133 -1 207 3 14 8 57 11 95 9 102 11 114 19 177
7 56 7 57 -19 64 -20 5 -35 -1 -65 -25 -21 -17 -44 -31 -51 -31 -19 0 -5 146
24 255 27 104 87 309 90 313 3 3 106 10 241 17 204 9 350 17 352 19 4 3 423
-3 523 -8z"/>
<path d="M6925 7993 c-28 -28 -65 -92 -138 -238 -192 -389 -253 -507 -288
-557 -11 -14 -19 -31 -19 -37 0 -6 -4 -11 -10 -11 -5 0 -10 -5 -10 -11 0 -6
-10 -24 -21 -41 -18 -25 -20 -33 -9 -53 14 -26 98 -108 180 -176 163 -135 620
-436 892 -588 l58 -32 27 20 c16 11 137 87 271 170 341 212 520 334 647 441
54 45 155 153 161 172 3 11 -5 37 -19 61 -13 23 -73 137 -132 252 -253 493
-349 656 -375 640 -19 -12 -32 -194 -40 -522 0 -25 -104 -85 -260 -151 -188
-79 -274 -87 -445 -42 -236 62 -396 150 -395 218 0 15 -2 123 -5 241 -4 169
-8 220 -20 238 -18 27 -28 29 -50 6z"/>
</g>
</svg>
